<?xml version="1.0" encoding="UTF-8" standalone="no"?>
<svg id="svg2" xmlns:rdf="http://www.w3.org/1999/02/22-rdf-syntax-ns#" xmlns="http://www.w3.org/2000/svg" height="218.39" width="887.62" version="1.1" xmlns:cc="http://creativecommons.org/ns#" viewBox="0 0 887.62415 218.386" xmlns:dc="http://purl.org/dc/elements/1.1/">
 <metadata id="metadata8">
  <rdf:RDF>
   <cc:Work rdf:about="">
    <dc:format>image/svg+xml</dc:format>
    <dc:type rdf:resource="http://purl.org/dc/dcmitype/StillImage"/>
    <dc:title/>
   </cc:Work>
  </rdf:RDF>
 </metadata>
 <path id="path4138" fill="#4b4b4b" d="m163.56 217.51c-18.05-2.65-37.55-13.2-50.57-27.37-14.553-15.83-22.158-33.8-23.626-55.84l-0.57736-8.6719h-44.394l-44.393-0.01v-62.808-62.812h102.66 102.65v22.447 22.447l11.484 5.6311c19.143 9.3864 32.347 22.413 41.438 40.881 5.7658 11.713 8.016 20.373 8.6685 33.359 0.89458 17.805-1.6199 30.17-9.1976 45.23-10.334 20.538-30.335 37.797-51.381 44.337-12.206 3.7929-29.721 5.0939-42.769 3.177zm40.19-7.8532c26.035-8.8859 45.085-27.639 53.681-52.848 3.9946-11.713 4.9836-18.158 4.5701-29.777-0.63-17.55-6.84-34.221-18.01-48.366-5.4-6.835-15.47-16.055-20.93-19.162-10.09-5.741-26.12-11.7-31.49-11.7h-2.1579l-0.25505-17.578-0.25507-17.578-85.729-0.23934c-47.151-0.13164-85.964 0.0793-86.25 0.46875-0.28632 0.38945-0.40441 23.384-0.26241 51.099l0.25817 50.391h39.117 39.117l0.007 15.234c0.008 16.253 0.65646 19.893 5.8075 32.578 7.0768 17.428 23.039 34.358 40.123 42.557 14.084 6.7588 20.805 8.0583 39.844 7.7044 13.869-0.25786 16.228-0.54658 22.808-2.7925zm-33.13-5.37c-9.6122-1.0208-23.46-5.7796-31.638-10.872-8.864-5.5198-19.812-16.477-24.722-24.741-30.613-51.53 8.516-116.15 68.272-112.75 27.205 1.5489 52.214 18.233 63.018 42.042 1.6379 3.6094 3.3319 7.2205 3.7643 8.0246 3.1782 5.9101 4.3788 29.901 2.0381 40.725-1.5834 7.3219-8.1024 21.015-13.393 28.13-4.7843 6.435-13.966 14.693-21.173 19.042-6.1076 3.6857-15.78 7.6717-18.617 7.6717-1.1697 0-2.3693 0.39235-2.6656 0.87188-0.48087 0.77806-3.9091 1.3187-14.572 2.298-1.8047 0.16575-6.4453-0.0347-10.312-0.44537zm26.092-7.357c15.865-4.3403 31.257-15.781 40.393-30.024 2.6205-4.0851 4.7645-7.7034 4.7645-8.0407 0-0.33732 0.59643-1.9427 1.3254-3.5675 2.1094-4.7017 3.1918-8.973 4.3457-17.149 3.2482-23.015-7.5369-48.43-26.648-62.796-4.9745-3.7394-13.634-8.7907-15.071-8.7907-0.26693 0-0.59736 11.918-0.7343 26.484l-0.24897 26.484-2.1617-6.2555c-2.5355-7.3375-9.6116-17.819-15.349-22.737-10.795-9.252-27.89-12.919-44.158-9.4717-15.391 3.2614-25.567 13.362-32.138 31.902-2.6976 7.6105-2.9369 23.736-0.49556 33.395 6.409 25.356 26.347 45.162 51.178 50.84 3.6094 0.8253 7.4062 1.7011 8.4375 1.9461 3.9043 0.92782 19.961-0.41397 26.561-2.2196zm-173.58-89.74c-0.344-0.35-0.625-20.385-0.625-44.534v-43.906h80.156 80.156v13.928 13.928l-9.6094 0.52668c-19.908 1.0911-39.778 9.875-53.797 23.782-5.6449 5.5997-6.2609 6.3732-12.16 15.269-2.8142 4.2438-6.4009 12.104-9.1216 19.989-0.52622 1.5251-3.1641 1.6406-37.47 1.6406-20.297 0-37.186-0.28125-37.529-0.625zm335.99 50.547c3.1951-6.0586 9.8372-18.58 14.76-27.824l8.9508-16.809-3.6077-6.6289c-1.99-3.65-9.66-17.528-17.04-30.841-7.39-13.312-13.43-24.387-13.43-24.609 0-0.22264 3.7625-0.4048 8.361-0.4048h8.361l1.8268 3.0469c1.0047 1.6758 4.0422 7.2656 6.7499 12.422 11.324 21.563 16.304 30.469 17.041 30.469 0.42973 0 5.8798-10.336 12.111-22.969l11.33-22.969h7.891c4.9193 0 7.891 0.37317 7.891 0.99094 0 0.54501-3.1058 6.9786-6.9017 14.297-3.796 7.3183-10.603 20.478-15.126 29.243-4.5233 8.7656-9.7908 18.891-11.705 22.5-1.9146 3.6094-8.652 16.582-14.972 28.828l-11.491 22.266h-8.4077-8.4077l5.8093-11.016zm-54.892-30.611c-13.625-4.3203-24.648-16.404-26.36-28.898l-0.55158-4.0242 7.2191-1.4704c4.9807-1.0145 7.3218-1.1571 7.5502-0.45999 0.18209 0.55572 0.77253 2.7384 1.3121 4.8503 2.1582 8.4475 9.9644 15.163 19.468 16.748 9.951 1.6596 21.153-5.5483 24.113-15.515 3.9661-13.355-0.80397-21.648-16.65-28.948-4.7301-2.1789-12.176-5.676-16.546-7.7714-17.124-8.2106-24.089-20.411-20.237-35.447 2.6779-10.453 9.1844-17.275 20.683-21.686 8.3864-3.2173 21.411-3.0678 28.706 0.32947 8.4763 3.9472 18.068 13.597 15.965 16.061-0.53466 0.62635-3.2107 2.3288-5.9467 3.7832l-4.9746 2.6444-4.8142-4.653c-3.8122-3.6846-5.8393-4.8728-9.7396-5.7093-18.598-3.9886-33.181 15.1-20.457 26.779 3.2587 2.9912 7.972 5.4038 18.916 9.6827 16.144 6.3122 24.807 13.008 29.068 22.47 2.9474 6.5441 3.2984 20.414 0.6916 27.334-4.4583 11.835-12.723 19.794-24.252 23.355-6.8936 2.1292-17.386 2.3756-23.163 0.54383zm141.09-0.24609c-6.0692-2.1163-9.8242-4.8416-13.848-10.05-3.3376-4.3203-2.7541-5.6683 3.6577-8.449l5.7471-2.4924 3.1215 3.6468c3.9118 4.5701 7.6747 6.1812 12.824 5.4907 5.4078-0.72518 9.1229-4.831 9.1229-10.082 0-4.8097-1.7763-6.4845-13.263-12.505-13.491-7.0706-16.526-9.4976-19.132-15.296-4.0398-8.9919 1.5474-22.215 11.249-26.621 5.0856-2.3099 14.707-2.3099 19.792 0 3.7618 1.7087 11.015 9.0925 10.487 10.676-0.15033 0.45098-2.7026 2.1235-5.6718 3.7167l-5.3984 2.8967-3.1534-3.0564c-4.0251-3.9013-8.7461-4.2962-12.23-1.023-3.0952 2.9078-3.1022 6.8716-0.0178 9.956 1.292 1.292 6.6953 4.3786 12.007 6.859 16.128 7.5309 20.911 13.334 20.116 24.406-0.74111 10.323-5.1447 16.601-14.785 21.076-6.0806 2.8228-14.03 3.151-20.625 0.85143zm101.72 0.24609c-14.328-4.5431-23.522-15.901-25.824-31.901-0.99939-6.9459 0.37428-18.53 3.045-25.678 2.7741-7.4246 11.384-15.985 18.903-18.795 5.749-2.1481 18.646-2.9312 24.501-1.4876 14.702 3.6248 24.971 18.054 25.228 35.446l0.085 5.7609-28.594 0.46875-28.594 0.46875 0.29793 2.3438c1.5745 12.386 10.812 21.571 21.683 21.557 7.9254-0.01 11.332-1.5737 17.632-8.0946l5.8631-6.0687 5.6213 2.9961c3.0917 1.6479 5.6213 3.4763 5.6213 4.0632 0 3.1-7.4453 11.086-13.594 14.582-9.4418 5.3675-22.866 7.1945-31.875 4.338zm30.889-48.294c0.73685-1.1922-0.99588-5.4944-3.9306-9.7592-6.4654-9.3956-21.891-10.471-31.034-2.1629-2.6763 2.432-5.7681 8.2578-5.7681 10.869 0 1.8653 0.49415 1.9124 20.101 1.9124 11.162 0 20.337-0.38193 20.632-0.85883zm165.1 48.055c-9.5773-2.9389-17.407-10.428-21.758-20.81-2.3794-5.678-2.6123-7.2681-2.6288-17.949-0.016-10.4 0.23857-12.299 2.2635-16.875 6.4729-14.629 17.784-22.678 31.964-22.746 8.9808-0.0433 14.946 2.2824 21.56 8.4057l5.57 5.161v-5.726-5.726h7.5 7.5v37.5 37.5h-7.5-7.5v-5.2503-5.2503l-5.1594 4.7154c-8.8164 8.0577-20.262 10.591-31.823 7.0438zm21.177-12.659c15.148-4.5384 21.621-28.049 11.756-42.696-7.4193-11.016-25.264-13.182-34.707-4.2128-5.5884 5.3084-7.5476 10.119-7.9598 19.546-0.35357 8.0839-0.18855 9.08 2.4317 14.679 5.2949 11.315 16.456 16.286 28.479 12.684zm-272.96-19.017v-30.412l-3.5156-0.29096-3.5156-0.29097-0.27545-6.7969-0.27544-6.7969h3.7666 3.7667l0.25878-14.297 0.2588-14.297 7.241-0.27337 7.241-0.27337 0.25901 14.336 0.259 14.336 6.8371 0.27626 6.8371 0.27626-0.27461 6.755-0.2746 6.755-6.7969 0.27545-6.7969 0.27544v30.428 30.428h-7.5-7.5v-30.412zm111.58-7.0878 0.0584-37.5h7.4602 7.4602v3.75c0 2.0625 0.34294 3.75 0.7621 3.75s1.9583-1.2486 3.4204-2.7747c9.2028-9.6056 27.031-8.8002 34.948 1.5788 1.2882 1.689 2.727 3.0709 3.1971 3.0709 0.47018 0 2.1365-1.4596 3.7029-3.2437 1.5664-1.784 5.1251-4.3578 7.9083-5.7195 4.5485-2.2254 5.9091-2.4425 13.451-2.147 7.558 0.29622 8.7922 0.61143 12.442 3.1777 4.9239 3.4622 8.8895 10.75 10.182 18.714 0.50226 3.0938 0.91564 16.699 0.91863 30.234l0.005 24.609h-7.4464-7.4464l-0.28792-26.484c-0.26416-24.298-0.44272-26.789-2.1629-30.174-2.7196-5.3515-5.8268-7.2811-11.652-7.2359-6.4627 0.0501-10.179 2.3425-13.151 8.1124-2.3398 4.5426-2.3934 5.106-2.8534 29.971l-0.46875 25.342-7.1776 0.27222-7.1776 0.27223-0.36953-26.053c-0.40704-28.697-1.0087-32.08-6.386-35.909-3.1904-2.2718-10.998-2.5175-14.956-0.47081-7.5019 3.8794-9.3639 12.019-9.3861 41.03l-0.0158 21.328h-7.5186-7.5186l0.0584-37.5zm206.23 0v-37.5h7.5 7.5v37.5 37.5h-7.5-7.5v-37.5zm30.94 0.039v-37.539h7.0312 7.0312l0.0127 3.0469c0.008 1.6758 0.26101 3.9725 0.56438 5.1038 0.51232 1.9106 0.76149 1.7823 3.5028-1.8036 4.2584-5.5702 9.8083-8.222 17.208-8.222 4.9551 0 9.9539 1.3339 12.253 3.2698 0.41455 0.34899-5.5641 11.711-6.4506 12.259-0.44102 0.27256-1.729-0.00064-2.8622-0.60711-3.1147-1.6669-11.704-1.2951-14.649 0.63409-7.8092 5.1168-8.9192 9.6643-9.2471 37.882l-0.26687 22.969-7.0641 0.27381-7.064 0.27381v-37.539zm-28.73-63.667c-10.115-6.3489-1.605-22.171 9.4426-17.555 6.223 2.6002 8.0603 10.594 3.5858 15.602-3.3889 3.7925-8.8047 4.6046-13.028 1.9537z"/>
</svg>
